<svg width="108" height="108" viewBox="0 0 108 108" fill="none" xmlns="http://www.w3.org/2000/svg">
<path d="M52.4438 23.7491V31.046M52.4438 74.8273V82.1241M104 54C104 81.6142 81.6142 104 54 104C26.3858 104 4 81.6142 4 54C4 26.3858 26.3858 4 54 4C81.6142 4 104 26.3858 104 54ZM41.4985 31.046H59.7407C62.6436 31.046 65.4276 32.1992 67.4802 34.2518C69.5329 36.3045 70.686 39.0884 70.686 41.9913V42.5131C70.686 45.2776 69.5878 47.9288 67.633 49.8836C65.6782 51.8384 63.027 52.9366 60.2624 52.9366H41.4985H59.7407C62.6436 52.9366 65.4276 54.0898 67.4802 56.1424C69.5329 58.1951 70.686 60.9791 70.686 63.8819V64.4037C70.686 67.1682 69.5878 69.8195 67.633 71.7743C65.6782 73.7291 63.027 74.8273 60.2624 74.8273H41.4985V31.046Z" stroke="black" stroke-width="8" stroke-linecap="round" stroke-linejoin="round"/>
</svg>
