<svg width="38" height="38" viewBox="0 0 38 38" fill="none" xmlns="http://www.w3.org/2000/svg">
<path d="M18.8029 31.667C18.9085 31.667 19.0141 31.6406 19.1196 31.5878C19.2252 31.535 19.3043 31.4823 19.3571 31.4295L32.3404 18.4462C32.6571 18.1295 32.888 17.7732 33.0332 17.3774C33.1783 16.9816 33.2509 16.5857 33.2509 16.1899C33.2509 15.7677 33.1783 15.3653 33.0332 14.9826C32.888 14.6 32.6571 14.2635 32.3404 13.9732L25.6113 7.24408C25.321 6.92741 24.9845 6.69651 24.6019 6.55137C24.2193 6.40623 23.8168 6.33366 23.3946 6.33366C22.9988 6.33366 22.6029 6.40623 22.2071 6.55137C21.8113 6.69651 21.455 6.92741 21.1384 7.24408L20.7029 7.67949L23.6321 10.6482C24.0279 11.0177 24.3182 11.4399 24.5029 11.9149C24.6877 12.3899 24.78 12.8913 24.78 13.4191C24.78 14.5274 24.404 15.4576 23.6519 16.2097C22.8998 16.9618 21.9696 17.3378 20.8613 17.3378C20.3335 17.3378 19.8255 17.2455 19.3373 17.0607C18.8491 16.876 18.4203 16.5989 18.0509 16.2295L15.0821 13.3003L8.15503 20.2274C8.07586 20.3066 8.01648 20.3923 7.9769 20.4847C7.93732 20.5771 7.91753 20.676 7.91753 20.7816C7.91753 20.9927 7.99669 21.184 8.15503 21.3555C8.31336 21.5271 8.49808 21.6128 8.70919 21.6128C8.81475 21.6128 8.9203 21.5864 9.02586 21.5337C9.13141 21.4809 9.21058 21.4281 9.26336 21.3753L14.6467 15.992L16.8634 18.2087L11.5196 23.592C11.4404 23.6712 11.3811 23.7569 11.3415 23.8493C11.3019 23.9416 11.2821 24.0406 11.2821 24.1462C11.2821 24.3573 11.3613 24.542 11.5196 24.7003C11.6779 24.8587 11.8627 24.9378 12.0738 24.9378C12.1793 24.9378 12.2849 24.9114 12.3904 24.8587C12.496 24.8059 12.5752 24.7531 12.6279 24.7003L18.0113 19.3566L20.2279 21.5732L14.8842 26.9566C14.805 27.0094 14.7457 27.0885 14.7061 27.1941C14.6665 27.2996 14.6467 27.4052 14.6467 27.5107C14.6467 27.7219 14.7259 27.9066 14.8842 28.0649C15.0425 28.2232 15.2272 28.3024 15.4384 28.3024C15.5439 28.3024 15.6429 28.2826 15.7352 28.243C15.8276 28.2035 15.9134 28.1441 15.9925 28.0649L21.3759 22.7212L23.5925 24.9378L18.2092 30.3212C18.13 30.4003 18.0707 30.4861 18.0311 30.5785C17.9915 30.6708 17.9717 30.7698 17.9717 30.8753C17.9717 31.0864 18.0575 31.2712 18.229 31.4295C18.4005 31.5878 18.5918 31.667 18.8029 31.667ZM18.7634 34.8337C17.787 34.8337 16.9227 34.5104 16.1707 33.8639C15.4186 33.2173 14.9766 32.4059 14.8446 31.4295C13.9474 31.2976 13.1953 30.9281 12.5884 30.3212C11.9814 29.7142 11.612 28.9621 11.48 28.0649C10.5828 27.933 9.83732 27.5569 9.24357 26.9368C8.64982 26.3166 8.28697 25.5712 8.15503 24.7003C7.15225 24.5684 6.33419 24.133 5.70086 23.3941C5.06753 22.6552 4.75086 21.7844 4.75086 20.7816C4.75086 20.2538 4.84982 19.7458 5.04773 19.2576C5.24565 18.7694 5.52933 18.3406 5.89878 17.9712L15.0821 8.82741L20.2675 14.0128C20.3203 14.092 20.3995 14.1514 20.505 14.191C20.6106 14.2305 20.7161 14.2503 20.8217 14.2503C21.0592 14.2503 21.2571 14.1778 21.4154 14.0326C21.5738 13.8875 21.6529 13.6962 21.6529 13.4587C21.6529 13.3531 21.6332 13.2475 21.5936 13.142C21.554 13.0364 21.4946 12.9573 21.4154 12.9045L15.755 7.24408C15.4647 6.92741 15.1283 6.69651 14.7457 6.55137C14.363 6.40623 13.9606 6.33366 13.5384 6.33366C13.1425 6.33366 12.7467 6.40623 12.3509 6.55137C11.955 6.69651 11.5988 6.92741 11.2821 7.24408L5.70086 12.8649C5.46336 13.1024 5.26544 13.3795 5.10711 13.6962C4.94878 14.0128 4.84322 14.3295 4.79044 14.6462C4.73766 14.9628 4.73766 15.2861 4.79044 15.616C4.84322 15.9458 4.94878 16.2559 5.10711 16.5462L2.81128 18.842C2.36266 18.235 2.0328 17.5687 1.82169 16.843C1.61058 16.1173 1.53141 15.385 1.58419 14.6462C1.63697 13.9073 1.82169 13.1882 2.13836 12.4889C2.45503 11.7896 2.89044 11.1628 3.44461 10.6087L9.02586 5.02741C9.65919 4.42046 10.3651 3.95866 11.1436 3.64199C11.922 3.32533 12.7203 3.16699 13.5384 3.16699C14.3564 3.16699 15.1547 3.32533 15.9332 3.64199C16.7116 3.95866 17.4043 4.42046 18.0113 5.02741L18.4467 5.46283L18.8821 5.02741C19.5154 4.42046 20.2213 3.95866 20.9998 3.64199C21.7783 3.32533 22.5766 3.16699 23.3946 3.16699C24.2127 3.16699 25.0109 3.32533 25.7894 3.64199C26.5679 3.95866 27.2606 4.42046 27.8675 5.02741L34.5571 11.717C35.1641 12.3239 35.6259 13.0232 35.9425 13.8149C36.2592 14.6066 36.4175 15.4114 36.4175 16.2295C36.4175 17.0475 36.2592 17.8458 35.9425 18.6243C35.6259 19.4028 35.1641 20.0955 34.5571 20.7024L21.5738 33.6462C21.2043 34.0156 20.7755 34.3059 20.2873 34.517C19.7991 34.7281 19.2911 34.8337 18.7634 34.8337Z" fill="black"/>
</svg>
