<svg width="56" height="56" viewBox="0 0 56 56" fill="none" xmlns="http://www.w3.org/2000/svg">
<path d="M11.666 42V50.7873L15.201 48.6663L26.3124 42H37.3327C39.9064 42 41.9994 39.907 41.9994 37.3333V18.6667C41.9994 16.093 39.9064 14 37.3327 14H9.33268C6.75902 14 4.66602 16.093 4.66602 18.6667V37.3333C4.66602 39.907 6.75902 42 9.33268 42H11.666ZM9.33268 18.6667H37.3327V37.3333H25.0197L16.3327 42.546V37.3333H9.33268V18.6667Z" fill="white"/>
<path d="M46.6667 4.66699H18.6667C16.093 4.66699 14 6.75999 14 9.33366H42C44.5737 9.33366 46.6667 11.4267 46.6667 14.0003V32.667C49.2403 32.667 51.3333 30.574 51.3333 28.0003V9.33366C51.3333 6.75999 49.2403 4.66699 46.6667 4.66699Z" fill="white"/>
</svg>
