<svg width="40" height="40" viewBox="0 0 40 40" fill="none" xmlns="http://www.w3.org/2000/svg">
<path d="M32.5775 29.923C32.9297 30.2752 33.1276 30.753 33.1276 31.2511C33.1276 31.7492 32.9297 32.227 32.5775 32.5792C32.2252 32.9315 31.7475 33.1294 31.2493 33.1294C30.7512 33.1294 30.2735 32.9315 29.9212 32.5792L20.0009 22.6558L10.0775 32.5761C9.72523 32.9283 9.24749 33.1262 8.74935 33.1262C8.2512 33.1262 7.77346 32.9283 7.42122 32.5761C7.06898 32.2239 6.87109 31.7461 6.87109 31.248C6.87109 30.7498 7.06898 30.2721 7.42122 29.9199L17.3447 19.9995L7.42435 10.0761C7.07211 9.72386 6.87422 9.24612 6.87422 8.74798C6.87422 8.24984 7.07211 7.77209 7.42435 7.41985C7.77659 7.06761 8.25433 6.86973 8.75247 6.86973C9.25061 6.86973 9.72836 7.06761 10.0806 7.41985L20.0009 17.3433L29.9243 7.41829C30.2766 7.06605 30.7543 6.86816 31.2525 6.86816C31.7506 6.86816 32.2284 7.06605 32.5806 7.41829C32.9328 7.77053 33.1307 8.24827 33.1307 8.74642C33.1307 9.24456 32.9328 9.7223 32.5806 10.0745L22.6572 19.9995L32.5775 29.923Z" fill="black"/>
</svg>
