<svg width="28" height="28" viewBox="0 0 28 28" fill="none" xmlns="http://www.w3.org/2000/svg">
<path d="M25.444 2.55668C23.9012 1.01388 22.5292 1.46888 22.5292 1.46888L10.4346 13.5537L8.40039 19.6003L14.4442 17.5647L26.5318 5.47148C26.5318 5.47148 26.9854 4.09948 25.444 2.55668ZM14.8474 16.2473L14.188 16.9053L12.1258 17.6053C11.966 17.2163 11.7288 16.8638 11.4286 16.5693C11.1338 16.2694 10.7814 16.0322 10.3926 15.8721L11.0926 13.8099L11.752 13.1519C11.752 13.1519 12.8384 13.0273 13.9038 14.0941C14.9706 15.1595 14.8474 16.2473 14.8474 16.2473ZM22.4004 23.8003H4.20039V5.60028H11.2004L14.0004 2.80028H4.20039C2.66039 2.80028 1.40039 4.06028 1.40039 5.60028V23.8003C1.40039 25.3403 2.66039 26.6003 4.20039 26.6003H22.4004C23.9404 26.6003 25.2004 25.3403 25.2004 23.8003V14.0003L22.4004 16.8003V23.8003Z" fill="black"/>
</svg>
