<svg width="40" height="40" viewBox="0 0 40 40" fill="none" xmlns="http://www.w3.org/2000/svg">
<path d="M34.3127 18.8879L6.81272 5.13787C6.59718 5.03008 6.35508 4.98689 6.11557 5.01351C5.87606 5.04012 5.64934 5.1354 5.46272 5.28787C5.2845 5.43724 5.15148 5.63336 5.07861 5.85418C5.00574 6.075 4.99591 6.31177 5.05022 6.53787L8.36272 18.7504H22.5002V21.2504H8.36272L5.00022 33.4254C4.94925 33.6142 4.94331 33.8123 4.98285 34.0039C5.0224 34.1954 5.10634 34.375 5.22792 34.5282C5.3495 34.6814 5.50534 34.8039 5.68289 34.8859C5.86044 34.9679 6.05476 35.0071 6.25022 35.0004C6.4459 34.9992 6.63857 34.9521 6.81272 34.8629L34.3127 21.1129C34.5175 21.008 34.6893 20.8486 34.8093 20.6523C34.9293 20.456 34.9928 20.2304 34.9928 20.0004C34.9928 19.7703 34.9293 19.5447 34.8093 19.3484C34.6893 19.1521 34.5175 18.9928 34.3127 18.8879Z" fill="#3C6BA3"/>
</svg>
