<svg width="24" height="24" viewBox="0 0 24 24" fill="none" xmlns="http://www.w3.org/2000/svg">
<path d="M22 12H5V6.41001C4.99648 6.04986 5.09152 5.69559 5.27483 5.38556C5.45813 5.07552 5.72274 4.82151 6.04 4.65101C6.39105 4.46126 6.79094 4.38114 7.188 4.42101C6.98588 5.03294 6.9571 5.68888 7.10483 6.31616C7.25256 6.94345 7.57104 7.51759 8.025 7.97501L9.085 9.03501C9.17787 9.12799 9.28816 9.20175 9.40956 9.25207C9.53096 9.3024 9.66108 9.3283 9.7925 9.3283C9.92392 9.3283 10.054 9.3024 10.1754 9.25207C10.2968 9.20175 10.4071 9.12799 10.5 9.03501L14.035 5.50001C14.2225 5.31249 14.3278 5.05818 14.3278 4.79301C14.3278 4.52785 14.2225 4.27354 14.035 4.08601L12.975 3.02601C12.3848 2.43824 11.604 2.08068 10.7734 2.01779C9.94275 1.9549 9.11701 2.19082 8.445 2.68301C7.83919 2.44627 7.1847 2.36114 6.53849 2.43503C5.89227 2.50892 5.2739 2.73959 4.73716 3.10698C4.20043 3.47436 3.76159 3.96733 3.45883 4.543C3.15607 5.11866 2.99856 5.75959 3 6.41001V12H2C1.73478 12 1.48043 12.1054 1.29289 12.2929C1.10536 12.4804 1 12.7348 1 13C1 13.2652 1.10536 13.5196 1.29289 13.7071C1.48043 13.8947 1.73478 14 2 14H3V17C3.00184 17.6184 3.19507 18.2211 3.55318 18.7254C3.91128 19.2296 4.41669 19.6106 5 19.816V21C5 21.2652 5.10536 21.5196 5.29289 21.7071C5.48043 21.8947 5.73478 22 6 22C6.26522 22 6.51957 21.8947 6.70711 21.7071C6.89464 21.5196 7 21.2652 7 21V20H17V21C17 21.2652 17.1054 21.5196 17.2929 21.7071C17.4804 21.8947 17.7348 22 18 22C18.2652 22 18.5196 21.8947 18.7071 21.7071C18.8946 21.5196 19 21.2652 19 21V19.816C19.5833 19.6106 20.0887 19.2296 20.4468 18.7254C20.8049 18.2211 20.9982 17.6184 21 17V14H22C22.2652 14 22.5196 13.8947 22.7071 13.7071C22.8946 13.5196 23 13.2652 23 13C23 12.7348 22.8946 12.4804 22.7071 12.2929C22.5196 12.1054 22.2652 12 22 12ZM9.44 4.44001C9.72151 4.1596 10.1027 4.00216 10.5 4.00216C10.8973 4.00216 11.2785 4.1596 11.56 4.44001L11.914 4.79301L9.793 6.91401L9.439 6.56101C9.15773 6.27955 8.99973 5.89792 8.99973 5.50001C8.99973 5.1021 9.15773 4.72048 9.439 4.43901L9.44 4.44001ZM19 17C19 17.2652 18.8946 17.5196 18.7071 17.7071C18.5196 17.8947 18.2652 18 18 18H6C5.73478 18 5.48043 17.8947 5.29289 17.7071C5.10536 17.5196 5 17.2652 5 17V14H19V17Z" fill="black"/>
</svg>
