<svg width="36" height="21" viewBox="0 0 36 21" fill="none" xmlns="http://www.w3.org/2000/svg">
<path d="M16.914 1.22421L0.983988 17.9432C0.718054 18.2222 0.569702 18.5928 0.569702 18.9782C0.569702 19.3636 0.718054 19.7342 0.983988 20.0132L1.00199 20.0312C1.13091 20.1669 1.28609 20.275 1.45809 20.3488C1.63009 20.4227 1.81531 20.4607 2.00249 20.4607C2.18967 20.4607 2.37489 20.4227 2.54689 20.3488C2.71889 20.275 2.87407 20.1669 3.00299 20.0312L18.003 4.28721L32.997 20.0312C33.1259 20.1669 33.2811 20.275 33.4531 20.3488C33.6251 20.4227 33.8103 20.4607 33.9975 20.4607C34.1847 20.4607 34.3699 20.4227 34.5419 20.3488C34.7139 20.275 34.8691 20.1669 34.998 20.0312L35.016 20.0132C35.2819 19.7342 35.4303 19.3636 35.4303 18.9782C35.4303 18.5928 35.2819 18.2222 35.016 17.9432L19.086 1.22421C18.9459 1.07718 18.7774 0.960118 18.5907 0.880136C18.4041 0.800153 18.2031 0.758911 18 0.758911C17.7969 0.758911 17.5959 0.800153 17.4092 0.880136C17.2226 0.960118 17.0541 1.07718 16.914 1.22421Z" fill="white"/>
</svg>
