<svg width="36" height="21" viewBox="0 0 36 21" fill="none" xmlns="http://www.w3.org/2000/svg">
<path d="M19.0864 19.86L35.0164 3.14102C35.2823 2.86205 35.4307 2.49143 35.4307 2.10602C35.4307 1.7206 35.2823 1.34998 35.0164 1.07102L34.9984 1.05302C34.8695 0.917311 34.7143 0.809252 34.5423 0.735411C34.3703 0.66157 34.1851 0.623491 33.9979 0.623491C33.8107 0.623491 33.6255 0.66157 33.4535 0.735411C33.2815 0.809252 33.1263 0.917311 32.9974 1.05302L17.9974 16.797L3.00338 1.05302C2.87446 0.917311 2.71928 0.809252 2.54728 0.735411C2.37528 0.66157 2.19006 0.623491 2.00288 0.623491C1.8157 0.623491 1.63048 0.66157 1.45848 0.735411C1.28648 0.809252 1.1313 0.917311 1.00238 1.05302L0.98438 1.07102C0.718446 1.34998 0.570092 1.7206 0.570092 2.10602C0.570092 2.49143 0.718446 2.86205 0.98438 3.14102L16.9144 19.86C17.0545 20.0071 17.223 20.1241 17.4096 20.2041C17.5963 20.2841 17.7973 20.3253 18.0004 20.3253C18.2035 20.3253 18.4044 20.2841 18.5911 20.2041C18.7778 20.1241 18.9463 20.0071 19.0864 19.86Z" fill="black"/>
</svg>
