<svg width="167" height="167" viewBox="0 0 167 167" fill="none" xmlns="http://www.w3.org/2000/svg">
<path d="M83.5 13.9167C45.09 13.9167 13.9167 45.09 13.9167 83.5C13.9167 121.91 45.09 153.083 83.5 153.083C121.91 153.083 153.083 121.91 153.083 83.5C153.083 45.09 121.91 13.9167 83.5 13.9167ZM83.5 41.75C96.9296 41.75 107.854 52.6746 107.854 66.1042C107.854 79.5338 96.9296 90.4584 83.5 90.4584C70.0704 90.4584 59.1459 79.5338 59.1459 66.1042C59.1459 52.6746 70.0704 41.75 83.5 41.75ZM83.5 139.167C69.3746 139.167 52.6746 133.461 40.7759 119.127C52.9641 109.564 68.0081 104.367 83.5 104.367C98.9919 104.367 114.036 109.564 126.224 119.127C114.325 133.461 97.6254 139.167 83.5 139.167Z" fill="#B3B3B3"/>
</svg>
