<svg width="43" height="44" viewBox="0 0 43 44" fill="none" xmlns="http://www.w3.org/2000/svg">
<path d="M21.6788 33.7354L21.4997 33.9146L21.3026 33.7354C12.7922 26.0133 7.16634 20.9071 7.16634 15.7292C7.16634 12.1458 9.85384 9.45833 13.4372 9.45833C16.1963 9.45833 18.8838 11.25 19.8334 13.6867H23.1659C24.1155 11.25 26.803 9.45833 29.5622 9.45833C33.1455 9.45833 35.833 12.1458 35.833 15.7292C35.833 20.9071 30.2072 26.0133 21.6788 33.7354ZM29.5622 5.875C26.4447 5.875 23.4526 7.32625 21.4997 9.60167C19.5468 7.32625 16.5547 5.875 13.4372 5.875C7.91884 5.875 3.58301 10.1929 3.58301 15.7292C3.58301 22.4837 9.67467 28.02 18.9018 36.3871L21.4997 38.7521L24.0976 36.3871C33.3247 28.02 39.4163 22.4837 39.4163 15.7292C39.4163 10.1929 35.0805 5.875 29.5622 5.875Z" fill="black"/>
</svg>
