<svg width="43" height="44" viewBox="0 0 43 44" fill="none" xmlns="http://www.w3.org/2000/svg">
<path d="M21.6791 33.7354L21.5 33.9146L21.3029 33.7354C12.7925 26.0133 7.16665 20.9071 7.16665 15.7292C7.16665 12.1458 9.85415 9.45833 13.4375 9.45833C16.1966 9.45833 18.8841 11.25 19.8337 13.6867H23.1662C24.1158 11.25 26.8033 9.45833 29.5625 9.45833C33.1458 9.45833 35.8333 12.1458 35.8333 15.7292C35.8333 20.9071 30.2075 26.0133 21.6791 33.7354ZM29.5625 5.875C26.445 5.875 23.4529 7.32625 21.5 9.60167C19.5471 7.32625 16.555 5.875 13.4375 5.875C7.91915 5.875 3.58331 10.1929 3.58331 15.7292C3.58331 22.4837 9.67498 28.02 18.9021 36.3871L21.5 38.7521L24.0979 36.3871C33.325 28.02 39.4166 22.4837 39.4166 15.7292C39.4166 10.1929 35.0808 5.875 29.5625 5.875Z" fill="white"/>
</svg>
