<svg width="26" height="26" viewBox="0 0 26 26" fill="none" xmlns="http://www.w3.org/2000/svg">
<path d="M12.6265 5.73979V7.49104M12.6265 17.9985V19.7498M25 13C25 19.6274 19.6274 25 13 25C6.37258 25 1 19.6274 1 13C1 6.37258 6.37258 1 13 1C19.6274 1 25 6.37258 25 13ZM9.99965 7.49104H14.3778C15.0745 7.49104 15.7426 7.7678 16.2353 8.26044C16.7279 8.75307 17.0046 9.42123 17.0046 10.1179V10.2431C17.0046 10.9066 16.7411 11.5429 16.2719 12.0121C15.8028 12.4812 15.1665 12.7448 14.503 12.7448H9.99965H14.3778C15.0745 12.7448 15.7426 13.0216 16.2353 13.5142C16.7279 14.0068 17.0046 14.675 17.0046 15.3717V15.4969C17.0046 16.1604 16.7411 16.7967 16.2719 17.2658C15.8028 17.735 15.1665 17.9985 14.503 17.9985H9.99965V7.49104Z" stroke="black" stroke-width="2" stroke-linecap="round" stroke-linejoin="round"/>
</svg>
