<svg width="36" height="36" viewBox="0 0 36 36" fill="none" xmlns="http://www.w3.org/2000/svg">
<path d="M20.25 9.75003L26.25 15.75M6 30H12L27.75 14.25C28.144 13.8561 28.4565 13.3884 28.6697 12.8736C28.8829 12.3589 28.9926 11.8072 28.9926 11.25C28.9926 10.6929 28.8829 10.1412 28.6697 9.62644C28.4565 9.1117 28.144 8.64399 27.75 8.25003C27.356 7.85606 26.8883 7.54355 26.3736 7.33034C25.8588 7.11712 25.3072 7.00739 24.75 7.00739C24.1928 7.00739 23.6412 7.11712 23.1264 7.33034C22.6117 7.54355 22.144 7.85606 21.75 8.25003L6 24V30Z" stroke="black" stroke-width="2" stroke-linecap="round" stroke-linejoin="round"/>
</svg>
