<svg width="56" height="42" viewBox="0 0 56 42" fill="none" xmlns="http://www.w3.org/2000/svg">
<path d="M46.75 8.34375H3.15625V2.25C3.15625 1.87704 3.00809 1.51935 2.74437 1.25563C2.48065 0.991908 2.12296 0.84375 1.75 0.84375C1.37704 0.84375 1.01935 0.991908 0.755631 1.25563C0.491908 1.51935 0.34375 1.87704 0.34375 2.25V39.75C0.34375 40.123 0.491908 40.4806 0.755631 40.7444C1.01935 41.0081 1.37704 41.1563 1.75 41.1563C2.12296 41.1563 2.48065 41.0081 2.74437 40.7444C3.00809 40.4806 3.15625 40.123 3.15625 39.75V31.7813H52.8437V39.75C52.8437 40.123 52.9919 40.4806 53.2556 40.7444C53.5193 41.0081 53.877 41.1563 54.25 41.1563C54.623 41.1563 54.9806 41.0081 55.2444 40.7444C55.5081 40.4806 55.6562 40.123 55.6562 39.75V17.25C55.6562 14.8879 54.7179 12.6226 53.0477 10.9523C51.3774 9.28209 49.1121 8.34375 46.75 8.34375ZM3.15625 11.1563H20.9687V28.9688H3.15625V11.1563ZM23.7812 28.9688V11.1563H46.75C48.3662 11.1563 49.9161 11.7983 51.0589 12.9411C52.2017 14.0839 52.8437 15.6338 52.8437 17.25V28.9688H23.7812Z" fill="black"/>
</svg>
