<svg width="137" height="266" viewBox="0 0 137 266" fill="none" xmlns="http://www.w3.org/2000/svg">
<path d="M133.043 0.752014H70.0635V63.5757H133.043V0.752014Z" fill="#1D3764" stroke="#C2CDE0" stroke-miterlimit="10"/>
<path d="M63.8082 125.107V132.646H0.828613V69.822L63.8082 125.107Z" fill="#1D3764" stroke="#C2CDE0" stroke-miterlimit="10"/>
<path d="M133.05 63.5757L97.3042 99.2325L63.8019 69.822H0.822266L70.0637 0.752014V63.5757H133.05Z" fill="#1D3764" stroke="#C2CDE0" stroke-miterlimit="10"/>
<path d="M63.8019 69.822V125.107L0.822266 69.822H63.8019Z" fill="#C2CDE0" stroke="#C2CDE0" stroke-miterlimit="10"/>
<path d="M66.9357 265.248V202.424H3.95605L39.7014 166.774L73.1975 196.184H136.177L66.9357 265.248Z" fill="#C2CDE0" stroke="#C2CDE0" stroke-miterlimit="10"/>
<path d="M136.177 133.354V196.184L73.1977 140.893L69.1789 137.363L63.8081 132.646V125.107L67.8269 128.637L73.1977 133.354H136.177Z" fill="#1D3764" stroke="#C2CDE0" stroke-miterlimit="10"/>
<path d="M66.9357 202.43H3.95605V265.254H66.9357V202.43Z" fill="#1D3764" stroke="#C2CDE0" stroke-miterlimit="10"/>
<path d="M136.177 196.184H73.1979L39.7018 166.774L0.828613 132.646H63.8082L69.1791 137.363L73.1979 140.893L136.177 196.184Z" fill="#1D3764" stroke="#C2CDE0" stroke-miterlimit="10"/>
<path d="M97.3042 99.2263L67.8269 128.637L63.8081 125.107V69.822L97.3042 99.2263Z" fill="#C2CDE0" stroke="#C2CDE0" stroke-miterlimit="10"/>
<path d="M136.178 133.354H73.198L67.8271 128.637L97.3045 99.2263L136.178 133.354Z" fill="#C2CDE0" stroke="#C2CDE0" stroke-miterlimit="10"/>
</svg>
