<svg width="486" height="286" viewBox="0 0 486 286" fill="none" xmlns="http://www.w3.org/2000/svg">
<path d="M23 1.5C11.1259 1.5 1.5 11.1259 1.5 23V263C1.5 274.874 11.1259 284.5 23 284.5H463C474.874 284.5 484.5 274.874 484.5 263V23C484.5 11.1259 474.874 1.5 463 1.5H23Z" fill="#ECECEC" stroke="#B3B3B3" stroke-width="3"/>
<path d="M124.846 186H122.566L115.706 175.62V186H113.426V172.08H115.706L122.566 182.44V172.08H124.846V186ZM132.62 186.18C131.58 186.18 130.64 185.947 129.8 185.48C128.96 185 128.3 184.333 127.82 183.48C127.34 182.613 127.1 181.613 127.1 180.48C127.1 179.36 127.347 178.367 127.84 177.5C128.333 176.633 129.007 175.967 129.86 175.5C130.713 175.033 131.667 174.8 132.72 174.8C133.773 174.8 134.727 175.033 135.58 175.5C136.433 175.967 137.107 176.633 137.6 177.5C138.093 178.367 138.34 179.36 138.34 180.48C138.34 181.6 138.087 182.593 137.58 183.46C137.073 184.327 136.38 185 135.5 185.48C134.633 185.947 133.673 186.18 132.62 186.18ZM132.62 184.2C133.207 184.2 133.753 184.06 134.26 183.78C134.78 183.5 135.2 183.08 135.52 182.52C135.84 181.96 136 181.28 136 180.48C136 179.68 135.847 179.007 135.54 178.46C135.233 177.9 134.827 177.48 134.32 177.2C133.813 176.92 133.267 176.78 132.68 176.78C132.093 176.78 131.547 176.92 131.04 177.2C130.547 177.48 130.153 177.9 129.86 178.46C129.567 179.007 129.42 179.68 129.42 180.48C129.42 181.667 129.72 182.587 130.32 183.24C130.933 183.88 131.7 184.2 132.62 184.2ZM145.029 180.48C145.029 179.347 145.256 178.353 145.709 177.5C146.176 176.633 146.816 175.967 147.629 175.5C148.442 175.033 149.376 174.8 150.429 174.8C151.762 174.8 152.862 175.12 153.729 175.76C154.609 176.387 155.202 177.287 155.509 178.46H153.049C152.849 177.913 152.529 177.487 152.089 177.18C151.649 176.873 151.096 176.72 150.429 176.72C149.496 176.72 148.749 177.053 148.189 177.72C147.642 178.373 147.369 179.293 147.369 180.48C147.369 181.667 147.642 182.593 148.189 183.26C148.749 183.927 149.496 184.26 150.429 184.26C151.749 184.26 152.622 183.68 153.049 182.52H155.509C155.189 183.64 154.589 184.533 153.709 185.2C152.829 185.853 151.736 186.18 150.429 186.18C149.376 186.18 148.442 185.947 147.629 185.48C146.816 185 146.176 184.333 145.709 183.48C145.256 182.613 145.029 181.613 145.029 180.48ZM158.941 173.52C158.528 173.52 158.181 173.38 157.901 173.1C157.621 172.82 157.481 172.473 157.481 172.06C157.481 171.647 157.621 171.3 157.901 171.02C158.181 170.74 158.528 170.6 158.941 170.6C159.341 170.6 159.681 170.74 159.961 171.02C160.241 171.3 160.381 171.647 160.381 172.06C160.381 172.473 160.241 172.82 159.961 173.1C159.681 173.38 159.341 173.52 158.941 173.52ZM160.061 174.98V186H157.781V174.98H160.061ZM165.715 176.84V182.94C165.715 183.353 165.808 183.653 165.995 183.84C166.195 184.013 166.528 184.1 166.995 184.1H168.395V186H166.595C165.568 186 164.781 185.76 164.235 185.28C163.688 184.8 163.415 184.02 163.415 182.94V176.84H162.115V174.98H163.415V172.24H165.715V174.98H168.395V176.84H165.715ZM171.656 173.52C171.243 173.52 170.896 173.38 170.616 173.1C170.336 172.82 170.196 172.473 170.196 172.06C170.196 171.647 170.336 171.3 170.616 171.02C170.896 170.74 171.243 170.6 171.656 170.6C172.056 170.6 172.396 170.74 172.676 171.02C172.956 171.3 173.096 171.647 173.096 172.06C173.096 172.473 172.956 172.82 172.676 173.1C172.396 173.38 172.056 173.52 171.656 173.52ZM172.776 174.98V186H170.496V174.98H172.776ZM177.79 184.14H182.79V186H175.15V184.14L180.17 176.84H175.15V174.98H182.79V176.84L177.79 184.14ZM195.284 180.22C195.284 180.633 195.257 181.007 195.204 181.34H186.784C186.85 182.22 187.177 182.927 187.764 183.46C188.35 183.993 189.07 184.26 189.924 184.26C191.15 184.26 192.017 183.747 192.524 182.72H194.984C194.65 183.733 194.044 184.567 193.164 185.22C192.297 185.86 191.217 186.18 189.924 186.18C188.87 186.18 187.924 185.947 187.084 185.48C186.257 185 185.604 184.333 185.124 183.48C184.657 182.613 184.424 181.613 184.424 180.48C184.424 179.347 184.65 178.353 185.104 177.5C185.57 176.633 186.217 175.967 187.044 175.5C187.884 175.033 188.844 174.8 189.924 174.8C190.964 174.8 191.89 175.027 192.704 175.48C193.517 175.933 194.15 176.573 194.604 177.4C195.057 178.213 195.284 179.153 195.284 180.22ZM192.904 179.5C192.89 178.66 192.59 177.987 192.004 177.48C191.417 176.973 190.69 176.72 189.824 176.72C189.037 176.72 188.364 176.973 187.804 177.48C187.244 177.973 186.91 178.647 186.804 179.5H192.904ZM203.087 174.8C203.954 174.8 204.727 174.98 205.407 175.34C206.101 175.7 206.641 176.233 207.027 176.94C207.414 177.647 207.607 178.5 207.607 179.5V186H205.347V179.84C205.347 178.853 205.101 178.1 204.607 177.58C204.114 177.047 203.441 176.78 202.587 176.78C201.734 176.78 201.054 177.047 200.547 177.58C200.054 178.1 199.807 178.853 199.807 179.84V186H197.527V174.98H199.807V176.24C200.181 175.787 200.654 175.433 201.227 175.18C201.814 174.927 202.434 174.8 203.087 174.8ZM214.951 180.48C214.951 179.347 215.178 178.353 215.631 177.5C216.098 176.633 216.738 175.967 217.551 175.5C218.364 175.033 219.298 174.8 220.351 174.8C221.684 174.8 222.784 175.12 223.651 175.76C224.531 176.387 225.124 177.287 225.431 178.46H222.971C222.771 177.913 222.451 177.487 222.011 177.18C221.571 176.873 221.018 176.72 220.351 176.72C219.418 176.72 218.671 177.053 218.111 177.72C217.564 178.373 217.291 179.293 217.291 180.48C217.291 181.667 217.564 182.593 218.111 183.26C218.671 183.927 219.418 184.26 220.351 184.26C221.671 184.26 222.544 183.68 222.971 182.52H225.431C225.111 183.64 224.511 184.533 223.631 185.2C222.751 185.853 221.658 186.18 220.351 186.18C219.298 186.18 218.364 185.947 217.551 185.48C216.738 185 216.098 184.333 215.631 183.48C215.178 182.613 214.951 181.613 214.951 180.48ZM226.943 180.44C226.943 179.333 227.17 178.353 227.623 177.5C228.09 176.647 228.716 175.987 229.503 175.52C230.303 175.04 231.183 174.8 232.143 174.8C233.01 174.8 233.763 174.973 234.403 175.32C235.056 175.653 235.576 176.073 235.963 176.58V174.98H238.263V186H235.963V184.36C235.576 184.88 235.05 185.313 234.383 185.66C233.716 186.007 232.956 186.18 232.103 186.18C231.156 186.18 230.29 185.94 229.503 185.46C228.716 184.967 228.09 184.287 227.623 183.42C227.17 182.54 226.943 181.547 226.943 180.44ZM235.963 180.48C235.963 179.72 235.803 179.06 235.483 178.5C235.176 177.94 234.77 177.513 234.263 177.22C233.756 176.927 233.21 176.78 232.623 176.78C232.036 176.78 231.49 176.927 230.983 177.22C230.476 177.5 230.063 177.92 229.743 178.48C229.436 179.027 229.283 179.68 229.283 180.44C229.283 181.2 229.436 181.867 229.743 182.44C230.063 183.013 230.476 183.453 230.983 183.76C231.503 184.053 232.05 184.2 232.623 184.2C233.21 184.2 233.756 184.053 234.263 183.76C234.77 183.467 235.176 183.04 235.483 182.48C235.803 181.907 235.963 181.24 235.963 180.48ZM243.538 176.58C243.871 176.02 244.311 175.587 244.858 175.28C245.418 174.96 246.078 174.8 246.838 174.8V177.16H246.258C245.364 177.16 244.684 177.387 244.218 177.84C243.764 178.293 243.538 179.08 243.538 180.2V186H241.258V174.98H243.538V176.58ZM248.174 180.44C248.174 179.333 248.4 178.353 248.854 177.5C249.32 176.647 249.947 175.987 250.734 175.52C251.534 175.04 252.42 174.8 253.394 174.8C254.114 174.8 254.82 174.96 255.514 175.28C256.22 175.587 256.78 176 257.194 176.52V171.2H259.494V186H257.194V184.34C256.82 184.873 256.3 185.313 255.634 185.66C254.98 186.007 254.227 186.18 253.374 186.18C252.414 186.18 251.534 185.94 250.734 185.46C249.947 184.967 249.32 184.287 248.854 183.42C248.4 182.54 248.174 181.547 248.174 180.44ZM257.194 180.48C257.194 179.72 257.034 179.06 256.714 178.5C256.407 177.94 256 177.513 255.494 177.22C254.987 176.927 254.44 176.78 253.854 176.78C253.267 176.78 252.72 176.927 252.214 177.22C251.707 177.5 251.294 177.92 250.974 178.48C250.667 179.027 250.514 179.68 250.514 180.44C250.514 181.2 250.667 181.867 250.974 182.44C251.294 183.013 251.707 183.453 252.214 183.76C252.734 184.053 253.28 184.2 253.854 184.2C254.44 184.2 254.987 184.053 255.494 183.76C256 183.467 256.407 183.04 256.714 182.48C257.034 181.907 257.194 181.24 257.194 180.48ZM269.964 176.6C270.35 176.093 270.877 175.667 271.544 175.32C272.21 174.973 272.964 174.8 273.804 174.8C274.764 174.8 275.637 175.04 276.424 175.52C277.224 175.987 277.85 176.647 278.304 177.5C278.757 178.353 278.984 179.333 278.984 180.44C278.984 181.547 278.757 182.54 278.304 183.42C277.85 184.287 277.224 184.967 276.424 185.46C275.637 185.94 274.764 186.18 273.804 186.18C272.964 186.18 272.217 186.013 271.564 185.68C270.91 185.333 270.377 184.907 269.964 184.4V191.24H267.684V174.98H269.964V176.6ZM276.664 180.44C276.664 179.68 276.504 179.027 276.184 178.48C275.877 177.92 275.464 177.5 274.944 177.22C274.437 176.927 273.89 176.78 273.304 176.78C272.73 176.78 272.184 176.927 271.664 177.22C271.157 177.513 270.744 177.94 270.424 178.5C270.117 179.06 269.964 179.72 269.964 180.48C269.964 181.24 270.117 181.907 270.424 182.48C270.744 183.04 271.157 183.467 271.664 183.76C272.184 184.053 272.73 184.2 273.304 184.2C273.89 184.2 274.437 184.053 274.944 183.76C275.464 183.453 275.877 183.013 276.184 182.44C276.504 181.867 276.664 181.2 276.664 180.44ZM282.398 173.52C281.985 173.52 281.638 173.38 281.358 173.1C281.078 172.82 280.938 172.473 280.938 172.06C280.938 171.647 281.078 171.3 281.358 171.02C281.638 170.74 281.985 170.6 282.398 170.6C282.798 170.6 283.138 170.74 283.418 171.02C283.698 171.3 283.838 171.647 283.838 172.06C283.838 172.473 283.698 172.82 283.418 173.1C283.138 173.38 282.798 173.52 282.398 173.52ZM283.518 174.98V186H281.238V174.98H283.518ZM285.752 180.48C285.752 179.347 285.978 178.353 286.432 177.5C286.898 176.633 287.538 175.967 288.352 175.5C289.165 175.033 290.098 174.8 291.152 174.8C292.485 174.8 293.585 175.12 294.452 175.76C295.332 176.387 295.925 177.287 296.232 178.46H293.772C293.572 177.913 293.252 177.487 292.812 177.18C292.372 176.873 291.818 176.72 291.152 176.72C290.218 176.72 289.472 177.053 288.912 177.72C288.365 178.373 288.092 179.293 288.092 180.48C288.092 181.667 288.365 182.593 288.912 183.26C289.472 183.927 290.218 184.26 291.152 184.26C292.472 184.26 293.345 183.68 293.772 182.52H296.232C295.912 183.64 295.312 184.533 294.432 185.2C293.552 185.853 292.458 186.18 291.152 186.18C290.098 186.18 289.165 185.947 288.352 185.48C287.538 185 286.898 184.333 286.432 183.48C285.978 182.613 285.752 181.613 285.752 180.48ZM301.164 176.84V182.94C301.164 183.353 301.257 183.653 301.444 183.84C301.644 184.013 301.977 184.1 302.444 184.1H303.844V186H302.044C301.017 186 300.231 185.76 299.684 185.28C299.137 184.8 298.864 184.02 298.864 182.94V176.84H297.564V174.98H298.864V172.24H301.164V174.98H303.844V176.84H301.164ZM315.925 174.98V186H313.645V184.7C313.285 185.153 312.812 185.513 312.225 185.78C311.652 186.033 311.039 186.16 310.385 186.16C309.519 186.16 308.739 185.98 308.045 185.62C307.365 185.26 306.825 184.727 306.425 184.02C306.039 183.313 305.845 182.46 305.845 181.46V174.98H308.105V181.12C308.105 182.107 308.352 182.867 308.845 183.4C309.339 183.92 310.012 184.18 310.865 184.18C311.719 184.18 312.392 183.92 312.885 183.4C313.392 182.867 313.645 182.107 313.645 181.12V174.98H315.925ZM321.214 176.58C321.547 176.02 321.987 175.587 322.534 175.28C323.094 174.96 323.754 174.8 324.514 174.8V177.16H323.934C323.04 177.16 322.36 177.387 321.894 177.84C321.44 178.293 321.214 179.08 321.214 180.2V186H318.934V174.98H321.214V176.58ZM336.709 180.22C336.709 180.633 336.683 181.007 336.629 181.34H328.209C328.276 182.22 328.603 182.927 329.189 183.46C329.776 183.993 330.496 184.26 331.349 184.26C332.576 184.26 333.443 183.747 333.949 182.72H336.409C336.076 183.733 335.469 184.567 334.589 185.22C333.723 185.86 332.643 186.18 331.349 186.18C330.296 186.18 329.349 185.947 328.509 185.48C327.683 185 327.029 184.333 326.549 183.48C326.083 182.613 325.849 181.613 325.849 180.48C325.849 179.347 326.076 178.353 326.529 177.5C326.996 176.633 327.643 175.967 328.469 175.5C329.309 175.033 330.269 174.8 331.349 174.8C332.389 174.8 333.316 175.027 334.129 175.48C334.943 175.933 335.576 176.573 336.029 177.4C336.483 178.213 336.709 179.153 336.709 180.22ZM334.329 179.5C334.316 178.66 334.016 177.987 333.429 177.48C332.843 176.973 332.116 176.72 331.249 176.72C330.463 176.72 329.789 176.973 329.229 177.48C328.669 177.973 328.336 178.647 328.229 179.5H334.329ZM354.068 174.98L347.308 191.18H344.948L347.188 185.82L342.848 174.98H345.388L348.488 183.38L351.708 174.98H354.068ZM365.889 180.22C365.889 180.633 365.862 181.007 365.809 181.34H357.389C357.456 182.22 357.782 182.927 358.369 183.46C358.956 183.993 359.676 184.26 360.529 184.26C361.756 184.26 362.622 183.747 363.129 182.72H365.589C365.256 183.733 364.649 184.567 363.769 185.22C362.902 185.86 361.822 186.18 360.529 186.18C359.476 186.18 358.529 185.947 357.689 185.48C356.862 185 356.209 184.333 355.729 183.48C355.262 182.613 355.029 181.613 355.029 180.48C355.029 179.347 355.256 178.353 355.709 177.5C356.176 176.633 356.822 175.967 357.649 175.5C358.489 175.033 359.449 174.8 360.529 174.8C361.569 174.8 362.496 175.027 363.309 175.48C364.122 175.933 364.756 176.573 365.209 177.4C365.662 178.213 365.889 179.153 365.889 180.22ZM363.509 179.5C363.496 178.66 363.196 177.987 362.609 177.48C362.022 176.973 361.296 176.72 360.429 176.72C359.642 176.72 358.969 176.973 358.409 177.48C357.849 177.973 357.516 178.647 357.409 179.5H363.509ZM370.793 176.84V182.94C370.793 183.353 370.886 183.653 371.073 183.84C371.273 184.013 371.606 184.1 372.073 184.1H373.473V186H371.673C370.646 186 369.859 185.76 369.313 185.28C368.766 184.8 368.493 184.02 368.493 182.94V176.84H367.193V174.98H368.493V172.24H370.793V174.98H373.473V176.84H370.793Z" fill="#B3B3B3"/>
<path d="M223.5 140.75V135.875C223.5 132.285 226.41 129.375 230 129.375H256C259.59 129.375 262.5 132.285 262.5 135.875V142.375M223.5 144C219.91 144 217 140.937 217 137.158V98.8421C217 95.0633 219.91 92 223.5 92H262.5C266.09 92 269 95.0633 269 98.8421V137.158C269 140.937 266.09 144 262.5 144H223.5ZM251.125 109.875C251.125 114.362 247.487 118 243 118C238.513 118 234.875 114.362 234.875 109.875C234.875 105.387 238.513 101.75 243 101.75C247.487 101.75 251.125 105.387 251.125 109.875Z" stroke="#B3B3B3" stroke-width="3" stroke-linecap="round" stroke-linejoin="round"/>
</svg>
