<svg width="40" height="40" viewBox="0 0 40 40" fill="none" xmlns="http://www.w3.org/2000/svg">
<path d="M19.0948 13.45L5.81985 27.3825C5.59824 27.615 5.47461 27.9238 5.47461 28.245C5.47461 28.5662 5.59824 28.875 5.81985 29.1075L5.83485 29.1225C5.94228 29.2356 6.0716 29.3256 6.21493 29.3872C6.35826 29.4487 6.51261 29.4804 6.6686 29.4804C6.82458 29.4804 6.97893 29.4487 7.12227 29.3872C7.2656 29.3256 7.39491 29.2356 7.50235 29.1225L20.0023 16.0025L32.4973 29.1225C32.6048 29.2356 32.7341 29.3256 32.8774 29.3872C33.0208 29.4487 33.1751 29.4804 33.3311 29.4804C33.4871 29.4804 33.6414 29.4487 33.7848 29.3872C33.9281 29.3256 34.0574 29.2356 34.1648 29.1225L34.1798 29.1075C34.4015 28.875 34.5251 28.5662 34.5251 28.245C34.5251 27.9238 34.4015 27.615 34.1798 27.3825L20.9048 13.45C20.7881 13.3275 20.6477 13.2299 20.4921 13.1633C20.3366 13.0966 20.1691 13.0623 19.9998 13.0623C19.8306 13.0623 19.6631 13.0966 19.5076 13.1633C19.352 13.2299 19.2116 13.3275 19.0948 13.45Z" fill="black"/>
</svg>
