<svg width="40" height="40" viewBox="0 0 40 40" fill="none" xmlns="http://www.w3.org/2000/svg">
<path d="M20.9052 26.55L34.1802 12.6175C34.4018 12.385 34.5254 12.0762 34.5254 11.755C34.5254 11.4338 34.4018 11.125 34.1802 10.8925L34.1652 10.8775C34.0577 10.7644 33.9284 10.6744 33.7851 10.6128C33.6417 10.5513 33.4874 10.5196 33.3314 10.5196C33.1754 10.5196 33.0211 10.5513 32.8777 10.6128C32.7344 10.6744 32.6051 10.7644 32.4977 10.8775L19.9977 23.9975L7.50265 10.8775C7.39522 10.7644 7.2659 10.6744 7.12257 10.6128C6.97924 10.5513 6.82489 10.5196 6.6689 10.5196C6.51292 10.5196 6.35857 10.5513 6.21523 10.6128C6.0719 10.6744 5.94258 10.7644 5.83515 10.8775L5.82015 10.8925C5.59854 11.125 5.47491 11.4338 5.47491 11.755C5.47491 12.0762 5.59854 12.385 5.82015 12.6175L19.0952 26.55C19.2119 26.6725 19.3523 26.7701 19.5079 26.8367C19.6634 26.9034 19.8309 26.9377 20.0002 26.9377C20.1694 26.9377 20.3369 26.9034 20.4924 26.8367C20.648 26.7701 20.7884 26.6725 20.9052 26.55Z" fill="black"/>
</svg>
