<svg width="60" height="60" viewBox="0 0 60 60" fill="none" xmlns="http://www.w3.org/2000/svg">
<circle cx="30" cy="30" r="30" fill="white"/>
<path d="M18.4503 30.905L32.3828 44.18C32.6152 44.4016 32.9241 44.5253 33.2453 44.5253C33.5664 44.5253 33.8753 44.4016 34.1077 44.18L34.1228 44.165C34.2358 44.0576 34.3259 43.9283 34.3874 43.7849C34.449 43.6416 34.4807 43.4873 34.4807 43.3313C34.4807 43.1753 34.449 43.0209 34.3874 42.8776C34.3259 42.7343 34.2358 42.605 34.1228 42.4975L21.0028 29.9975L34.1228 17.5025C34.2358 17.3951 34.3259 17.2658 34.3874 17.1224C34.449 16.9791 34.4807 16.8248 34.4807 16.6688C34.4807 16.5128 34.449 16.3584 34.3874 16.2151C34.3259 16.0718 34.2358 15.9425 34.1228 15.835L34.1077 15.82C33.8753 15.5984 33.5664 15.4748 33.2453 15.4748C32.9241 15.4748 32.6152 15.5984 32.3828 15.82L18.4503 29.095C18.3277 29.2118 18.2302 29.3522 18.1635 29.5077C18.0969 29.6633 18.0625 29.8308 18.0625 30C18.0625 30.1693 18.0969 30.3368 18.1635 30.4923C18.2302 30.6479 18.3277 30.7883 18.4503 30.905Z" fill="black"/>
</svg>
