<svg width="40" height="40" viewBox="0 0 40 40" fill="none" xmlns="http://www.w3.org/2000/svg">
<path d="M32.5 11.5625H3.4375V7.5C3.4375 7.25136 3.33873 7.0129 3.16291 6.83709C2.9871 6.66127 2.74864 6.5625 2.5 6.5625C2.25136 6.5625 2.0129 6.66127 1.83709 6.83709C1.66127 7.0129 1.5625 7.25136 1.5625 7.5V32.5C1.5625 32.7486 1.66127 32.9871 1.83709 33.1629C2.0129 33.3387 2.25136 33.4375 2.5 33.4375C2.74864 33.4375 2.9871 33.3387 3.16291 33.1629C3.33873 32.9871 3.4375 32.7486 3.4375 32.5V27.1875H36.5625V32.5C36.5625 32.7486 36.6613 32.9871 36.8371 33.1629C37.0129 33.3387 37.2514 33.4375 37.5 33.4375C37.7486 33.4375 37.9871 33.3387 38.1629 33.1629C38.3387 32.9871 38.4375 32.7486 38.4375 32.5V17.5C38.4375 15.9253 37.8119 14.4151 36.6984 13.3016C35.5849 12.1881 34.0747 11.5625 32.5 11.5625ZM3.4375 13.4375H15.3125V25.3125H3.4375V13.4375ZM17.1875 25.3125V13.4375H32.5C33.5774 13.4375 34.6108 13.8655 35.3726 14.6274C36.1345 15.3892 36.5625 16.4226 36.5625 17.5V25.3125H17.1875Z" fill="black"/>
</svg>
