<svg width="320" height="320" viewBox="0 0 320 320" fill="none" xmlns="http://www.w3.org/2000/svg">
<path d="M160.001 253.333H186.667V80L271.921 116.533C274.321 117.562 276.366 119.273 277.802 121.454C279.239 123.634 280.003 126.189 280.001 128.8V253.333H306.667V280H13.334V253.333H40.0007V75.3334C40.0003 72.7536 40.7484 70.2291 42.1542 68.066C43.56 65.9029 45.5631 64.1941 47.9207 63.1467L150.627 17.5067C151.641 17.0562 152.752 16.8659 153.858 16.9531C154.964 17.0403 156.031 17.4023 156.962 18.0061C157.893 18.6099 158.658 19.4366 159.189 20.4111C159.72 21.3856 159.999 22.4771 160.001 23.5867V253.333Z" fill="#3C6BA3"/>
</svg>
