<svg width="320" height="320" viewBox="0 0 320 320" fill="none" xmlns="http://www.w3.org/2000/svg">
<path d="M149.7 272.425C149.159 274.588 147.911 276.509 146.154 277.881C144.396 279.254 142.23 280 140 280C139.158 280.004 138.318 279.903 137.5 279.7L97.5002 269.7C96.3866 269.42 95.3295 268.951 94.3752 268.312L64.3752 248.312C62.1689 246.841 60.6377 244.552 60.1185 241.952C59.5992 239.351 60.1345 236.65 61.6064 234.444C63.0784 232.237 65.3665 230.706 67.9674 230.187C70.5683 229.668 73.2689 230.203 75.4752 231.675L104.025 250.713L142.35 260.3C143.631 260.61 144.837 261.171 145.9 261.949C146.964 262.727 147.863 263.708 148.546 264.835C149.229 265.961 149.682 267.212 149.88 268.515C150.078 269.817 150.017 271.146 149.7 272.425ZM315.563 151.85C314.742 154.342 313.436 156.647 311.72 158.632C310.003 160.616 307.911 162.241 305.563 163.413L275.963 178.213L257.113 197.075L207.113 247.075C205.891 248.296 204.373 249.179 202.709 249.639C201.044 250.099 199.288 250.12 197.613 249.7L117.613 229.7C116.396 229.395 115.247 228.865 114.225 228.137L44.8252 178.588L14.4752 163.413C9.73187 161.041 6.12444 156.883 4.44609 151.853C2.76774 146.823 3.15588 141.332 5.52517 136.588L36.5877 74.475C38.9588 69.7317 43.1167 66.1243 48.1471 64.4459C53.1774 62.7676 58.6684 63.1557 63.4127 65.525L90.9877 79.275L157.238 60.35C159.035 59.8359 160.94 59.8359 162.738 60.35L228.988 79.275L256.563 65.525C261.307 63.1557 266.798 62.7676 271.828 64.4459C276.859 66.1243 281.017 69.7317 283.388 74.475L314.45 136.588C315.635 138.932 316.343 141.488 316.534 144.107C316.725 146.727 316.395 149.359 315.563 151.85ZM235 190.825L200.363 163.088C175.938 183.088 144.925 185.725 119.225 169.338C116.697 167.729 114.563 165.574 112.98 163.03C111.396 160.486 110.405 157.619 110.079 154.641C109.752 151.663 110.099 148.649 111.094 145.823C112.088 142.997 113.705 140.43 115.825 138.313C115.855 138.276 115.889 138.243 115.925 138.213L172 83.825L160 80.4L96.9752 98.4125L62.7627 166.825L124.263 210.763L196.938 228.925L235 190.825ZM257.8 168.025L223.825 100H184.05L130 152.5C145.825 162.613 170.638 165.4 192.9 142.963C194.639 141.21 196.964 140.163 199.429 140.022C201.894 139.881 204.323 140.657 206.25 142.2L249.263 176.663L257.8 168.025Z" fill="#3C6BA3"/>
</svg>
