<svg width="32" height="32" viewBox="0 0 32 32" fill="none" xmlns="http://www.w3.org/2000/svg">
<g clip-path="url(#clip0_548_1138)">
<path d="M16.1327 24.7333L15.9993 24.8667L15.8527 24.7333C9.51935 18.9867 5.33268 15.1867 5.33268 11.3333C5.33268 8.66667 7.33268 6.66667 9.99935 6.66667C12.0527 6.66667 14.0527 8 14.7593 9.81333H17.2393C17.946 8 19.946 6.66667 21.9993 6.66667C24.666 6.66667 26.666 8.66667 26.666 11.3333C26.666 15.1867 22.4793 18.9867 16.1327 24.7333ZM21.9993 4C19.6793 4 17.4527 5.08 15.9993 6.77333C14.546 5.08 12.3193 4 9.99935 4C5.89268 4 2.66602 7.21333 2.66602 11.3333C2.66602 16.36 7.19935 20.48 14.066 26.7067L15.9993 28.4667L17.9327 26.7067C24.7993 20.48 29.3327 16.36 29.3327 11.3333C29.3327 7.21333 26.106 4 21.9993 4Z" fill="black"/>
<rect width="32" height="32" fill="white"/>
<path fill-rule="evenodd" clip-rule="evenodd" d="M4.55945 6.88721C5.81973 5.69616 7.52879 5.02706 9.31081 5.02706C11.0928 5.02706 12.8019 5.69616 14.0622 6.88721L16.0313 8.74713L18.0004 6.88721C18.6203 6.28041 19.3619 5.7964 20.1818 5.46343C21.0017 5.13046 21.8836 4.9552 22.7759 4.94787C23.6682 4.94054 24.5532 5.10129 25.3791 5.42074C26.205 5.74019 26.9554 6.21194 27.5864 6.80846C28.2174 7.40499 28.7164 8.11434 29.0543 8.89514C29.3922 9.67593 29.5623 10.5125 29.5545 11.3561C29.5467 12.1997 29.3614 13.0334 29.0091 13.8085C28.6569 14.5836 28.145 15.2847 27.5031 15.8707L16.0313 26.7174L4.55945 15.8707C3.29956 14.6793 2.5918 13.0636 2.5918 11.379C2.5918 9.69432 3.29956 8.07863 4.55945 6.88721Z" fill="white" stroke="#0F142E" stroke-width="4" stroke-linejoin="round"/>
</g>
<defs>
<clipPath id="clip0_548_1138">
<rect width="32" height="32" fill="white"/>
</clipPath>
</defs>
</svg>
