<svg width="320" height="320" viewBox="0 0 320 320" fill="none" xmlns="http://www.w3.org/2000/svg">
<path d="M266.666 106.667H191.839L206.813 61.7733C209.506 53.6667 208.146 44.68 203.146 37.7467C198.146 30.8133 190.039 26.6667 181.493 26.6667H159.999C156.039 26.6667 152.293 28.4267 149.746 31.4667L87.0793 106.667H53.3327C38.626 106.667 26.666 118.627 26.666 133.333V253.333C26.666 268.04 38.626 280 53.3327 280H230.759C236.185 279.982 241.476 278.318 245.936 275.228C250.395 272.137 253.811 267.767 255.733 262.693L292.493 164.68C293.051 163.183 293.335 161.598 293.333 160V133.333C293.333 118.627 281.373 106.667 266.666 106.667ZM53.3327 133.333H79.9993V253.333H53.3327V133.333ZM266.666 157.587L230.759 253.333H106.666V124.827L166.239 53.3333H181.519L160.693 115.773C160.017 117.778 159.828 119.914 160.143 122.006C160.457 124.097 161.266 126.084 162.502 127.801C163.737 129.517 165.364 130.915 167.248 131.877C169.132 132.839 171.218 133.338 173.333 133.333H266.666V157.587Z" fill="#3C6BA3"/>
</svg>
