<svg width="60" height="60" viewBox="0 0 60 60" fill="none" xmlns="http://www.w3.org/2000/svg">
<circle cx="30" cy="30" r="30" fill="white"/>
<path d="M39.5497 29.095L25.6172 15.82C25.3848 15.5984 25.0759 15.4747 24.7547 15.4747C24.4336 15.4747 24.1247 15.5984 23.8923 15.82L23.8772 15.835C23.7642 15.9424 23.6741 16.0717 23.6126 16.2151C23.551 16.3584 23.5193 16.5127 23.5193 16.6687C23.5193 16.8247 23.551 16.9791 23.6126 17.1224C23.6741 17.2657 23.7642 17.395 23.8772 17.5025L36.9972 30.0025L23.8772 42.4975C23.7642 42.6049 23.6741 42.7342 23.6126 42.8776C23.551 43.0209 23.5193 43.1752 23.5193 43.3312C23.5193 43.4872 23.551 43.6416 23.6126 43.7849C23.6741 43.9282 23.7642 44.0575 23.8772 44.165L23.8923 44.18C24.1247 44.4016 24.4336 44.5252 24.7547 44.5252C25.0759 44.5252 25.3848 44.4016 25.6172 44.18L39.5497 30.905C39.6723 30.7882 39.7698 30.6478 39.8365 30.4923C39.9031 30.3367 39.9375 30.1692 39.9375 30C39.9375 29.8307 39.9031 29.6632 39.8365 29.5077C39.7698 29.3521 39.6723 29.2117 39.5497 29.095Z" fill="black"/>
</svg>
